<?xml version="1.0" encoding="UTF-8"?>
<svg id="Layer_1" xmlns="http://www.w3.org/2000/svg" viewBox="0 0 120 120">
  <path d="M31.74,117.44c-1.45-1-1.63-1.57-.92-3.25,6.8-16.21,13.61-32.43,20.42-48.64.14-.33.26-.67.43-1.08-5.25,0-10.41,0-15.56,0-1.07,0-2.14,0-3.21,0-2.28,0-3.04-1.25-2.01-3.32,2.28-4.58,4.57-9.15,6.85-13.73,6.93-13.89,13.87-27.78,20.79-41.68.37-.74.79-1.39,1.53-1.8h31.41c1.45,1.17,1.56,1.91.53,3.54-6.97,11.03-13.94,22.05-20.9,33.07-.21.34-.42.68-.66,1.07.39.29.8.15,1.18.15,6.82.01,13.64,0,20.46,0,.7,0,1.4-.01,1.95.55.77.79.74,1.79-.16,2.87-2.91,3.48-5.84,6.95-8.76,10.42-16.76,19.94-33.51,39.88-50.27,59.82-.61.72-1.21,1.44-2,1.98h-1.11Z" style="fill: #7cb343;"/>
</svg>